<svg class="marks" width="816" height="439" xmlns="http://www.w3.org/2000/svg"><g transform="translate(25,10)"><g id="g1"><g transform="translate(0,0)"><rect class="background" width="622" height="400" style="pointer-events: none; fill: none;"></rect><g id="g2"><g transform="translate(0,400)"><rect class="background" width="0" height="0" style="pointer-events: none; fill: none;"></rect><g id="g3" style="pointer-events: none;"><line x1="0.5" y1="-400" x2="0.5" y2="0" style="fill: none; stroke: #d8d8d8; stroke-width: 1px; opacity: 1;"></line><line x1="62.7" y1="-400" x2="62.7" y2="0" style="fill: none; stroke: #d8d8d8; stroke-width: 1px; opacity: 1;"></line><line x1="124.9" y1="-400" x2="124.9" y2="0" style="fill: none; stroke: #d8d8d8; stroke-width: 1px; opacity: 1;"></line><line x1="187.1" y1="-400" x2="187.1" y2="0" style="fill: none; stroke: #d8d8d8; stroke-width: 1px; opacity: 1;"></line><line x1="249.3" y1="-400" x2="249.3" y2="0" style="fill: none; stroke: #d8d8d8; stroke-width: 1px; opacity: 1;"></line><line x1="311.5" y1="-400" x2="311.5" y2="0" style="fill: none; stroke: #d8d8d8; stroke-width: 1px; opacity: 1;"></line><line x1="373.7" y1="-400" x2="373.7" y2="0" style="fill: none; stroke: #d8d8d8; stroke-width: 1px; opacity: 1;"></line><line x1="435.90000000000003" y1="-400" x2="435.90000000000003" y2="0" style="fill: none; stroke: #d8d8d8; stroke-width: 1px; opacity: 1;"></line><line x1="498.1" y1="-400" x2="498.1" y2="0" style="fill: none; stroke: #d8d8d8; stroke-width: 1px; opacity: 1;"></line><line x1="560.3000000000001" y1="-400" x2="560.3000000000001" y2="0" style="fill: none; stroke: #d8d8d8; stroke-width: 1px; opacity: 1;"></line><line x1="622.5" y1="-400" x2="622.5" y2="0" style="fill: none; stroke: #d8d8d8; stroke-width: 1px; opacity: 1;"></line></g><g id="g4" style="pointer-events: none;"><line x1="0.5" y1="0" x2="0.5" y2="6" style="fill: none; stroke: #000000; stroke-width: 1px; opacity: 1;"></line><line x1="62.7" y1="0" x2="62.7" y2="6" style="fill: none; stroke: #000000; stroke-width: 1px; opacity: 1;"></line><line x1="124.9" y1="0" x2="124.9" y2="6" style="fill: none; stroke: #000000; stroke-width: 1px; opacity: 1;"></line><line x1="187.1" y1="0" x2="187.1" y2="6" style="fill: none; stroke: #000000; stroke-width: 1px; opacity: 1;"></line><line x1="249.3" y1="0" x2="249.3" y2="6" style="fill: none; stroke: #000000; stroke-width: 1px; opacity: 1;"></line><line x1="311.5" y1="0" x2="311.5" y2="6" style="fill: none; stroke: #000000; stroke-width: 1px; opacity: 1;"></line><line x1="373.7" y1="0" x2="373.7" y2="6" style="fill: none; stroke: #000000; stroke-width: 1px; opacity: 1;"></line><line x1="435.90000000000003" y1="0" x2="435.90000000000003" y2="6" style="fill: none; stroke: #000000; stroke-width: 1px; opacity: 1;"></line><line x1="498.1" y1="0" x2="498.1" y2="6" style="fill: none; stroke: #000000; stroke-width: 1px; opacity: 1;"></line><line x1="560.3000000000001" y1="0" x2="560.3000000000001" y2="6" style="fill: none; stroke: #000000; stroke-width: 1px; opacity: 1;"></line><line x1="622.5" y1="0" x2="622.5" y2="6" style="fill: none; stroke: #000000; stroke-width: 1px; opacity: 1;"></line></g><g id="g5" style="pointer-events: none;"></g><g id="g6"><text x="0.5" y="9" dy=".9em" text-anchor="middle" style="font-style: normal; font-variant: normal; font-weight: normal; font-size: 11px; line-height: normal; font-family: sans-serif; fill: #000000; opacity: 1;">1,970</text><text x="62.7" y="9" dy=".9em" text-anchor="middle" style="font-style: normal; font-variant: normal; font-weight: normal; font-size: 11px; line-height: normal; font-family: sans-serif; fill: #000000; opacity: 1;">1,975</text><text x="124.9" y="9" dy=".9em" text-anchor="middle" style="font-style: normal; font-variant: normal; font-weight: normal; font-size: 11px; line-height: normal; font-family: sans-serif; fill: #000000; opacity: 1;">1,980</text><text x="187.1" y="9" dy=".9em" text-anchor="middle" style="font-style: normal; font-variant: normal; font-weight: normal; font-size: 11px; line-height: normal; font-family: sans-serif; fill: #000000; opacity: 1;">1,985</text><text x="249.3" y="9" dy=".9em" text-anchor="middle" style="font-style: normal; font-variant: normal; font-weight: normal; font-size: 11px; line-height: normal; font-family: sans-serif; fill: #000000; opacity: 1;">1,990</text><text x="311.5" y="9" dy=".9em" text-anchor="middle" style="font-style: normal; font-variant: normal; font-weight: normal; font-size: 11px; line-height: normal; font-family: sans-serif; fill: #000000; opacity: 1;">1,995</text><text x="373.7" y="9" dy=".9em" text-anchor="middle" style="font-style: normal; font-variant: normal; font-weight: normal; font-size: 11px; line-height: normal; font-family: sans-serif; fill: #000000; opacity: 1;">2,000</text><text x="435.90000000000003" y="9" dy=".9em" text-anchor="middle" style="font-style: normal; font-variant: normal; font-weight: normal; font-size: 11px; line-height: normal; font-family: sans-serif; fill: #000000; opacity: 1;">2,005</text><text x="498.1" y="9" dy=".9em" text-anchor="middle" style="font-style: normal; font-variant: normal; font-weight: normal; font-size: 11px; line-height: normal; font-family: sans-serif; fill: #000000; opacity: 1;">2,010</text><text x="560.3000000000001" y="9" dy=".9em" text-anchor="middle" style="font-style: normal; font-variant: normal; font-weight: normal; font-size: 11px; line-height: normal; font-family: sans-serif; fill: #000000; opacity: 1;">2,015</text><text x="622.5" y="9" dy=".9em" text-anchor="middle" style="font-style: normal; font-variant: normal; font-weight: normal; font-size: 11px; line-height: normal; font-family: sans-serif; fill: #000000; opacity: 1;">2,020</text></g><g id="g7" style="pointer-events: none;"><path transform="translate(0.5,0.5)" d="M0,6V0H622V6" style="fill: none; stroke: #000000; stroke-width: 1px;"></path></g><g id="g8"></g></g></g><g id="g9"><g transform="translate(0,0)"><rect class="background" width="0" height="0" style="pointer-events: none; fill: none;"></rect><g id="g10" style="pointer-events: none;"><line x1="0" y1="400.5" x2="622" y2="400.5" style="fill: none; stroke: #d8d8d8; stroke-width: 1px; opacity: 1;"></line><line x1="0" y1="364.1363636363636" x2="622" y2="364.1363636363636" style="fill: none; stroke: #d8d8d8; stroke-width: 1px; opacity: 1;"></line><line x1="0" y1="327.77272727272725" x2="622" y2="327.77272727272725" style="fill: none; stroke: #d8d8d8; stroke-width: 1px; opacity: 1;"></line><line x1="0" y1="291.40909090909093" x2="622" y2="291.40909090909093" style="fill: none; stroke: #d8d8d8; stroke-width: 1px; opacity: 1;"></line><line x1="0" y1="255.04545454545453" x2="622" y2="255.04545454545453" style="fill: none; stroke: #d8d8d8; stroke-width: 1px; opacity: 1;"></line><line x1="0" y1="218.68181818181816" x2="622" y2="218.68181818181816" style="fill: none; stroke: #d8d8d8; stroke-width: 1px; opacity: 1;"></line><line x1="0" y1="182.31818181818184" x2="622" y2="182.31818181818184" style="fill: none; stroke: #d8d8d8; stroke-width: 1px; opacity: 1;"></line><line x1="0" y1="145.95454545454547" x2="622" y2="145.95454545454547" style="fill: none; stroke: #d8d8d8; stroke-width: 1px; opacity: 1;"></line><line x1="0" y1="109.59090909090907" x2="622" y2="109.59090909090907" style="fill: none; stroke: #d8d8d8; stroke-width: 1px; opacity: 1;"></line><line x1="0" y1="73.22727272727269" x2="622" y2="73.22727272727269" style="fill: none; stroke: #d8d8d8; stroke-width: 1px; opacity: 1;"></line><line x1="0" y1="36.86363636363632" x2="622" y2="36.86363636363632" style="fill: none; stroke: #d8d8d8; stroke-width: 1px; opacity: 1;"></line><line x1="0" y1="0.5" x2="622" y2="0.5" style="fill: none; stroke: #d8d8d8; stroke-width: 1px; opacity: 1;"></line></g><g id="g11" style="pointer-events: none;"><line x1="-6" y1="400.5" x2="0" y2="400.5" style="fill: none; stroke: #000000; stroke-width: 1px; opacity: 1;"></line><line x1="-6" y1="364.1363636363636" x2="0" y2="364.1363636363636" style="fill: none; stroke: #000000; stroke-width: 1px; opacity: 1;"></line><line x1="-6" y1="327.77272727272725" x2="0" y2="327.77272727272725" style="fill: none; stroke: #000000; stroke-width: 1px; opacity: 1;"></line><line x1="-6" y1="291.40909090909093" x2="0" y2="291.40909090909093" style="fill: none; stroke: #000000; stroke-width: 1px; opacity: 1;"></line><line x1="-6" y1="255.04545454545453" x2="0" y2="255.04545454545453" style="fill: none; stroke: #000000; stroke-width: 1px; opacity: 1;"></line><line x1="-6" y1="218.68181818181816" x2="0" y2="218.68181818181816" style="fill: none; stroke: #000000; stroke-width: 1px; opacity: 1;"></line><line x1="-6" y1="182.31818181818184" x2="0" y2="182.31818181818184" style="fill: none; stroke: #000000; stroke-width: 1px; opacity: 1;"></line><line x1="-6" y1="145.95454545454547" x2="0" y2="145.95454545454547" style="fill: none; stroke: #000000; stroke-width: 1px; opacity: 1;"></line><line x1="-6" y1="109.59090909090907" x2="0" y2="109.59090909090907" style="fill: none; stroke: #000000; stroke-width: 1px; opacity: 1;"></line><line x1="-6" y1="73.22727272727269" x2="0" y2="73.22727272727269" style="fill: none; stroke: #000000; stroke-width: 1px; opacity: 1;"></line><line x1="-6" y1="36.86363636363632" x2="0" y2="36.86363636363632" style="fill: none; stroke: #000000; stroke-width: 1px; opacity: 1;"></line><line x1="-6" y1="0.5" x2="0" y2="0.5" style="fill: none; stroke: #000000; stroke-width: 1px; opacity: 1;"></line></g><g id="g12" style="pointer-events: none;"></g><g id="g13"><text x="-9" y="400.5" dy=".35em" text-anchor="end" style="font-style: normal; font-variant: normal; font-weight: normal; font-size: 11px; line-height: normal; font-family: sans-serif; fill: #000000; opacity: 1;">-2</text><text x="-9" y="364.1363636363636" dy=".35em" text-anchor="end" style="font-style: normal; font-variant: normal; font-weight: normal; font-size: 11px; line-height: normal; font-family: sans-serif; fill: #000000; opacity: 1;">-1</text><text x="-9" y="327.77272727272725" dy=".35em" text-anchor="end" style="font-style: normal; font-variant: normal; font-weight: normal; font-size: 11px; line-height: normal; font-family: sans-serif; fill: #000000; opacity: 1;">0</text><text x="-9" y="291.40909090909093" dy=".35em" text-anchor="end" style="font-style: normal; font-variant: normal; font-weight: normal; font-size: 11px; line-height: normal; font-family: sans-serif; fill: #000000; opacity: 1;">1</text><text x="-9" y="255.04545454545453" dy=".35em" text-anchor="end" style="font-style: normal; font-variant: normal; font-weight: normal; font-size: 11px; line-height: normal; font-family: sans-serif; fill: #000000; opacity: 1;">2</text><text x="-9" y="218.68181818181816" dy=".35em" text-anchor="end" style="font-style: normal; font-variant: normal; font-weight: normal; font-size: 11px; line-height: normal; font-family: sans-serif; fill: #000000; opacity: 1;">3</text><text x="-9" y="182.31818181818184" dy=".35em" text-anchor="end" style="font-style: normal; font-variant: normal; font-weight: normal; font-size: 11px; line-height: normal; font-family: sans-serif; fill: #000000; opacity: 1;">4</text><text x="-9" y="145.95454545454547" dy=".35em" text-anchor="end" style="font-style: normal; font-variant: normal; font-weight: normal; font-size: 11px; line-height: normal; font-family: sans-serif; fill: #000000; opacity: 1;">5</text><text x="-9" y="109.59090909090907" dy=".35em" text-anchor="end" style="font-style: normal; font-variant: normal; font-weight: normal; font-size: 11px; line-height: normal; font-family: sans-serif; fill: #000000; opacity: 1;">6</text><text x="-9" y="73.22727272727269" dy=".35em" text-anchor="end" style="font-style: normal; font-variant: normal; font-weight: normal; font-size: 11px; line-height: normal; font-family: sans-serif; fill: #000000; opacity: 1;">7</text><text x="-9" y="36.86363636363632" dy=".35em" text-anchor="end" style="font-style: normal; font-variant: normal; font-weight: normal; font-size: 11px; line-height: normal; font-family: sans-serif; fill: #000000; opacity: 1;">8</text><text x="-9" y="0.5" dy=".35em" text-anchor="end" style="font-style: normal; font-variant: normal; font-weight: normal; font-size: 11px; line-height: normal; font-family: sans-serif; fill: #000000; opacity: 1;">9</text></g><g id="g14" style="pointer-events: none;"><path transform="translate(0.5,0.5)" d="M-6,0H0V400H-6" style="fill: none; stroke: #000000; stroke-width: 1px;"></path></g><g id="g15"></g></g></g><g id="g16"><g transform="translate(0,0)"><rect class="background" width="0" height="0" style="fill: none;"></rect><g id="g17"><path d="M360.76,203.63636363636363L373.2,305.45454545454544" style="fill: #1f77b4; stroke: #132b43;"></path></g></g><g transform="translate(0,0)"><rect class="background" width="0" height="0" style="fill: none;"></rect><g id="g18"><path d="M472.72,80L485.16,174.5454545454545L497.6,174.5454545454545L510.04,189.09090909090912L522.48,243.63636363636363L534.92,316.3636363636364" style="fill: #ff7f0e; stroke: #56b1f7;"></path></g></g><g transform="translate(0,0)"><rect class="background" width="0" height="0" style="fill: none;"></rect><g id="g19"><path d="M435.40000000000003,221.8181818181818L447.84,29.090909090909122L460.28,130.90909090909093L472.72,76.36363636363632L485.16,196.36363636363637L497.6,301.8181818181818L510.04,228.1818181818182L510.04,228.1818181818182" style="fill: #2ca02c; stroke: #132b43;"></path></g></g><g transform="translate(0,0)"><rect class="background" width="0" height="0" style="fill: none;"></rect><g id="g20"><path d="M447.84,87.27272727272725L460.28,127.27272727272725L472.72,112.72727272727269L485.16,247.27272727272725L497.6,341.8181818181818L510.04,327.27272727272725" style="fill: #d62728; stroke: #56b1f7;"></path></g></g><g transform="translate(0,0)"><rect class="background" width="0" height="0" style="fill: none;"></rect><g id="g21"><path d="M149.28,214.54545454545456L161.72,392.72727272727275L174.16000000000003,334.54545454545456L186.6,290.90909090909093" style="fill: #9467bd; stroke: #132b43;"></path></g></g><g transform="translate(0,0)"><rect class="background" width="0" height="0" style="fill: none;"></rect><g id="g22"><path d="M87.08000000000001,163.63636363636363L99.52,200L111.96,200L124.4,152.72727272727275L136.84,290.90909090909093" style="fill: #8c564b; stroke: #56b1f7;"></path></g></g></g><g id="g23"><g transform="translate(0,0)"><rect class="background" width="0" height="0" style="fill: none;"></rect><g id="g24"><path transform="translate(360.76,203.63636363636363)" d="M0,5.641895835477563A5.641895835477563,5.641895835477563 0 1,1 0,-5.641895835477563A5.641895835477563,5.641895835477563 0 1,1 0,5.641895835477563Z" style="fill: #1f77b4; stroke: #132b43;"></path><path transform="translate(373.2,305.45454545454544)" d="M0,5.641895835477563A5.641895835477563,5.641895835477563 0 1,1 0,-5.641895835477563A5.641895835477563,5.641895835477563 0 1,1 0,5.641895835477563Z" style="fill: #1f77b4; stroke: #132b43;"></path></g></g><g transform="translate(0,0)"><rect class="background" width="0" height="0" style="fill: none;"></rect><g id="g25"><path transform="translate(472.72,80)" d="M0,5.641895835477563A5.641895835477563,5.641895835477563 0 1,1 0,-5.641895835477563A5.641895835477563,5.641895835477563 0 1,1 0,5.641895835477563Z" style="fill: #ff7f0e; stroke: #56b1f7;"></path><path transform="translate(485.16,174.5454545454545)" d="M0,5.641895835477563A5.641895835477563,5.641895835477563 0 1,1 0,-5.641895835477563A5.641895835477563,5.641895835477563 0 1,1 0,5.641895835477563Z" style="fill: #ff7f0e; stroke: #56b1f7;"></path><path transform="translate(497.6,174.5454545454545)" d="M0,5.641895835477563A5.641895835477563,5.641895835477563 0 1,1 0,-5.641895835477563A5.641895835477563,5.641895835477563 0 1,1 0,5.641895835477563Z" style="fill: #ff7f0e; stroke: #56b1f7;"></path><path transform="translate(510.04,189.09090909090912)" d="M0,5.641895835477563A5.641895835477563,5.641895835477563 0 1,1 0,-5.641895835477563A5.641895835477563,5.641895835477563 0 1,1 0,5.641895835477563Z" style="fill: #ff7f0e; stroke: #56b1f7;"></path><path transform="translate(522.48,243.63636363636363)" d="M0,5.641895835477563A5.641895835477563,5.641895835477563 0 1,1 0,-5.641895835477563A5.641895835477563,5.641895835477563 0 1,1 0,5.641895835477563Z" style="fill: #ff7f0e; stroke: #56b1f7;"></path><path transform="translate(534.92,316.3636363636364)" d="M0,5.641895835477563A5.641895835477563,5.641895835477563 0 1,1 0,-5.641895835477563A5.641895835477563,5.641895835477563 0 1,1 0,5.641895835477563Z" style="fill: #ff7f0e; stroke: #56b1f7;"></path></g></g><g transform="translate(0,0)"><rect class="background" width="0" height="0" style="fill: none;"></rect><g id="g26"><path transform="translate(435.40000000000003,221.8181818181818)" d="M0,5.641895835477563A5.641895835477563,5.641895835477563 0 1,1 0,-5.641895835477563A5.641895835477563,5.641895835477563 0 1,1 0,5.641895835477563Z" style="fill: #2ca02c; stroke: #132b43;"></path><path transform="translate(447.84,29.090909090909122)" d="M0,5.641895835477563A5.641895835477563,5.641895835477563 0 1,1 0,-5.641895835477563A5.641895835477563,5.641895835477563 0 1,1 0,5.641895835477563Z" style="fill: #2ca02c; stroke: #132b43;"></path><path transform="translate(460.28,130.90909090909093)" d="M0,5.641895835477563A5.641895835477563,5.641895835477563 0 1,1 0,-5.641895835477563A5.641895835477563,5.641895835477563 0 1,1 0,5.641895835477563Z" style="fill: #2ca02c; stroke: #132b43;"></path><path transform="translate(472.72,76.36363636363632)" d="M0,5.641895835477563A5.641895835477563,5.641895835477563 0 1,1 0,-5.641895835477563A5.641895835477563,5.641895835477563 0 1,1 0,5.641895835477563Z" style="fill: #2ca02c; stroke: #132b43;"></path><path transform="translate(485.16,196.36363636363637)" d="M0,5.641895835477563A5.641895835477563,5.641895835477563 0 1,1 0,-5.641895835477563A5.641895835477563,5.641895835477563 0 1,1 0,5.641895835477563Z" style="fill: #2ca02c; stroke: #132b43;"></path><path transform="translate(497.6,301.8181818181818)" d="M0,5.641895835477563A5.641895835477563,5.641895835477563 0 1,1 0,-5.641895835477563A5.641895835477563,5.641895835477563 0 1,1 0,5.641895835477563Z" style="fill: #2ca02c; stroke: #132b43;"></path><path transform="translate(510.04,228.1818181818182)" d="M0,5.641895835477563A5.641895835477563,5.641895835477563 0 1,1 0,-5.641895835477563A5.641895835477563,5.641895835477563 0 1,1 0,5.641895835477563Z" style="fill: #2ca02c; stroke: #132b43;"></path><path transform="translate(510.04,228.1818181818182)" d="M0,5.641895835477563A5.641895835477563,5.641895835477563 0 1,1 0,-5.641895835477563A5.641895835477563,5.641895835477563 0 1,1 0,5.641895835477563Z" style="fill: #2ca02c; stroke: #132b43;"></path></g></g><g transform="translate(0,0)"><rect class="background" width="0" height="0" style="fill: none;"></rect><g id="g27"><path transform="translate(447.84,87.27272727272725)" d="M0,5.641895835477563A5.641895835477563,5.641895835477563 0 1,1 0,-5.641895835477563A5.641895835477563,5.641895835477563 0 1,1 0,5.641895835477563Z" style="fill: #d62728; stroke: #56b1f7;"></path><path transform="translate(460.28,127.27272727272725)" d="M0,5.641895835477563A5.641895835477563,5.641895835477563 0 1,1 0,-5.641895835477563A5.641895835477563,5.641895835477563 0 1,1 0,5.641895835477563Z" style="fill: #d62728; stroke: #56b1f7;"></path><path transform="translate(472.72,112.72727272727269)" d="M0,5.641895835477563A5.641895835477563,5.641895835477563 0 1,1 0,-5.641895835477563A5.641895835477563,5.641895835477563 0 1,1 0,5.641895835477563Z" style="fill: #d62728; stroke: #56b1f7;"></path><path transform="translate(485.16,247.27272727272725)" d="M0,5.641895835477563A5.641895835477563,5.641895835477563 0 1,1 0,-5.641895835477563A5.641895835477563,5.641895835477563 0 1,1 0,5.641895835477563Z" style="fill: #d62728; stroke: #56b1f7;"></path><path transform="translate(497.6,341.8181818181818)" d="M0,5.641895835477563A5.641895835477563,5.641895835477563 0 1,1 0,-5.641895835477563A5.641895835477563,5.641895835477563 0 1,1 0,5.641895835477563Z" style="fill: #d62728; stroke: #56b1f7;"></path><path transform="translate(510.04,327.27272727272725)" d="M0,5.641895835477563A5.641895835477563,5.641895835477563 0 1,1 0,-5.641895835477563A5.641895835477563,5.641895835477563 0 1,1 0,5.641895835477563Z" style="fill: #d62728; stroke: #56b1f7;"></path></g></g><g transform="translate(0,0)"><rect class="background" width="0" height="0" style="fill: none;"></rect><g id="g28"><path transform="translate(149.28,214.54545454545456)" d="M0,5.641895835477563A5.641895835477563,5.641895835477563 0 1,1 0,-5.641895835477563A5.641895835477563,5.641895835477563 0 1,1 0,5.641895835477563Z" style="fill: #9467bd; stroke: #132b43;"></path><path transform="translate(161.72,392.72727272727275)" d="M0,5.641895835477563A5.641895835477563,5.641895835477563 0 1,1 0,-5.641895835477563A5.641895835477563,5.641895835477563 0 1,1 0,5.641895835477563Z" style="fill: #9467bd; stroke: #132b43;"></path><path transform="translate(174.16000000000003,334.54545454545456)" d="M0,5.641895835477563A5.641895835477563,5.641895835477563 0 1,1 0,-5.641895835477563A5.641895835477563,5.641895835477563 0 1,1 0,5.641895835477563Z" style="fill: #9467bd; stroke: #132b43;"></path><path transform="translate(186.6,290.90909090909093)" d="M0,5.641895835477563A5.641895835477563,5.641895835477563 0 1,1 0,-5.641895835477563A5.641895835477563,5.641895835477563 0 1,1 0,5.641895835477563Z" style="fill: #9467bd; stroke: #132b43;"></path></g></g><g transform="translate(0,0)"><rect class="background" width="0" height="0" style="fill: none;"></rect><g id="g29"><path transform="translate(87.08000000000001,163.63636363636363)" d="M0,5.641895835477563A5.641895835477563,5.641895835477563 0 1,1 0,-5.641895835477563A5.641895835477563,5.641895835477563 0 1,1 0,5.641895835477563Z" style="fill: #8c564b; stroke: #56b1f7;"></path><path transform="translate(99.52,200)" d="M0,5.641895835477563A5.641895835477563,5.641895835477563 0 1,1 0,-5.641895835477563A5.641895835477563,5.641895835477563 0 1,1 0,5.641895835477563Z" style="fill: #8c564b; stroke: #56b1f7;"></path><path transform="translate(111.96,200)" d="M0,5.641895835477563A5.641895835477563,5.641895835477563 0 1,1 0,-5.641895835477563A5.641895835477563,5.641895835477563 0 1,1 0,5.641895835477563Z" style="fill: #8c564b; stroke: #56b1f7;"></path><path transform="translate(124.4,152.72727272727275)" d="M0,5.641895835477563A5.641895835477563,5.641895835477563 0 1,1 0,-5.641895835477563A5.641895835477563,5.641895835477563 0 1,1 0,5.641895835477563Z" style="fill: #8c564b; stroke: #56b1f7;"></path><path transform="translate(136.84,290.90909090909093)" d="M0,5.641895835477563A5.641895835477563,5.641895835477563 0 1,1 0,-5.641895835477563A5.641895835477563,5.641895835477563 0 1,1 0,5.641895835477563Z" style="fill: #8c564b; stroke: #56b1f7;"></path></g></g></g><g id="g30"><g transform="translate(647.5,0.5)"><rect class="background" width="138" height="93" style="pointer-events: none; fill: none;"></rect><g id="g31" style="pointer-events: none;"></g><g id="g32" style="pointer-events: none;"><path transform="translate(7.5,7)" d="M0,3.989422804014327A3.989422804014327,3.989422804014327 0 1,1 0,-3.989422804014327A3.989422804014327,3.989422804014327 0 1,1 0,3.989422804014327Z" style="fill: none; stroke: #132b43; stroke-width: 1px; opacity: 1;"></path><path transform="translate(7.5,22)" d="M0,3.989422804014327A3.989422804014327,3.989422804014327 0 1,1 0,-3.989422804014327A3.989422804014327,3.989422804014327 0 1,1 0,3.989422804014327Z" style="fill: none; stroke: #56b1f7; stroke-width: 1px; opacity: 1;"></path><path transform="translate(7.5,37)" d="M0,3.989422804014327A3.989422804014327,3.989422804014327 0 1,1 0,-3.989422804014327A3.989422804014327,3.989422804014327 0 1,1 0,3.989422804014327Z" style="fill: none; stroke: #132b43; stroke-width: 1px; opacity: 1;"></path><path transform="translate(7.5,52)" d="M0,3.989422804014327A3.989422804014327,3.989422804014327 0 1,1 0,-3.989422804014327A3.989422804014327,3.989422804014327 0 1,1 0,3.989422804014327Z" style="fill: none; stroke: #56b1f7; stroke-width: 1px; opacity: 1;"></path><path transform="translate(7.5,67)" d="M0,3.989422804014327A3.989422804014327,3.989422804014327 0 1,1 0,-3.989422804014327A3.989422804014327,3.989422804014327 0 1,1 0,3.989422804014327Z" style="fill: none; stroke: #132b43; stroke-width: 1px; opacity: 1;"></path><path transform="translate(7.5,82)" d="M0,3.989422804014327A3.989422804014327,3.989422804014327 0 1,1 0,-3.989422804014327A3.989422804014327,3.989422804014327 0 1,1 0,3.989422804014327Z" style="fill: none; stroke: #56b1f7; stroke-width: 1px; opacity: 1;"></path></g><g id="g33" style="pointer-events: none;"><text x="16" y="7" dy=".35em" text-anchor="start" style="font-style: normal; font-variant: normal; font-weight: normal; font-size: 10px; line-height: normal; font-family: sans-serif; fill: #000000; opacity: 1;">Albert Belle-Orioles</text><text x="16" y="22" dy=".35em" text-anchor="start" style="font-style: normal; font-variant: normal; font-weight: normal; font-size: 10px; line-height: normal; font-family: sans-serif; fill: #000000; opacity: 1;">Alex Rodriguez-Yankees</text><text x="16" y="37" dy=".35em" text-anchor="start" style="font-style: normal; font-variant: normal; font-weight: normal; font-size: 10px; line-height: normal; font-family: sans-serif; fill: #000000; opacity: 1;">Carlos Beltran-Mets</text><text x="16" y="52" dy=".35em" text-anchor="start" style="font-style: normal; font-variant: normal; font-weight: normal; font-size: 10px; line-height: normal; font-family: sans-serif; fill: #000000; opacity: 1;">Grady Sizemore-Indians</text><text x="16" y="67" dy=".35em" text-anchor="start" style="font-style: normal; font-variant: normal; font-weight: normal; font-size: 10px; line-height: normal; font-family: sans-serif; fill: #000000; opacity: 1;">Reggie Jackson-Angels</text><text x="16" y="82" dy=".35em" text-anchor="start" style="font-style: normal; font-variant: normal; font-weight: normal; font-size: 10px; line-height: normal; font-family: sans-serif; fill: #000000; opacity: 1;">Reggie Jackson-Yankees</text></g></g></g><g id="g34"><g transform="translate(647.5,0.5)"><rect class="background" width="138" height="93" style="pointer-events: none; fill: none;"></rect><g id="g35" style="pointer-events: none;"></g><g id="g36" style="pointer-events: none;"><path transform="translate(7.5,7)" d="M0,3.989422804014327A3.989422804014327,3.989422804014327 0 1,1 0,-3.989422804014327A3.989422804014327,3.989422804014327 0 1,1 0,3.989422804014327Z" style="fill: #1f77b4; stroke: #888888; stroke-width: 1px; opacity: 1;"></path><path transform="translate(7.5,22)" d="M0,3.989422804014327A3.989422804014327,3.989422804014327 0 1,1 0,-3.989422804014327A3.989422804014327,3.989422804014327 0 1,1 0,3.989422804014327Z" style="fill: #ff7f0e; stroke: #888888; stroke-width: 1px; opacity: 1;"></path><path transform="translate(7.5,37)" d="M0,3.989422804014327A3.989422804014327,3.989422804014327 0 1,1 0,-3.989422804014327A3.989422804014327,3.989422804014327 0 1,1 0,3.989422804014327Z" style="fill: #2ca02c; stroke: #888888; stroke-width: 1px; opacity: 1;"></path><path transform="translate(7.5,52)" d="M0,3.989422804014327A3.989422804014327,3.989422804014327 0 1,1 0,-3.989422804014327A3.989422804014327,3.989422804014327 0 1,1 0,3.989422804014327Z" style="fill: #d62728; stroke: #888888; stroke-width: 1px; opacity: 1;"></path><path transform="translate(7.5,67)" d="M0,3.989422804014327A3.989422804014327,3.989422804014327 0 1,1 0,-3.989422804014327A3.989422804014327,3.989422804014327 0 1,1 0,3.989422804014327Z" style="fill: #9467bd; stroke: #888888; stroke-width: 1px; opacity: 1;"></path><path transform="translate(7.5,82)" d="M0,3.989422804014327A3.989422804014327,3.989422804014327 0 1,1 0,-3.989422804014327A3.989422804014327,3.989422804014327 0 1,1 0,3.989422804014327Z" style="fill: #8c564b; stroke: #888888; stroke-width: 1px; opacity: 1;"></path></g><g id="g37" style="pointer-events: none;"><text x="16" y="7" dy=".35em" text-anchor="start" style="font-style: normal; font-variant: normal; font-weight: normal; font-size: 10px; line-height: normal; font-family: sans-serif; fill: #000000; opacity: 1;">Albert Belle-Orioles</text><text x="16" y="22" dy=".35em" text-anchor="start" style="font-style: normal; font-variant: normal; font-weight: normal; font-size: 10px; line-height: normal; font-family: sans-serif; fill: #000000; opacity: 1;">Alex Rodriguez-Yankees</text><text x="16" y="37" dy=".35em" text-anchor="start" style="font-style: normal; font-variant: normal; font-weight: normal; font-size: 10px; line-height: normal; font-family: sans-serif; fill: #000000; opacity: 1;">Carlos Beltran-Mets</text><text x="16" y="52" dy=".35em" text-anchor="start" style="font-style: normal; font-variant: normal; font-weight: normal; font-size: 10px; line-height: normal; font-family: sans-serif; fill: #000000; opacity: 1;">Grady Sizemore-Indians</text><text x="16" y="67" dy=".35em" text-anchor="start" style="font-style: normal; font-variant: normal; font-weight: normal; font-size: 10px; line-height: normal; font-family: sans-serif; fill: #000000; opacity: 1;">Reggie Jackson-Angels</text><text x="16" y="82" dy=".35em" text-anchor="start" style="font-style: normal; font-variant: normal; font-weight: normal; font-size: 10px; line-height: normal; font-family: sans-serif; fill: #000000; opacity: 1;">Reggie Jackson-Yankees</text></g></g></g></g></g></g></svg>